PathFileType	4	(X/Y/Z)	C:\Users\Basilio\Documents\Thesis Gigler\squatting_fais\c3dfiles\077\SLS_front_pre1\markers_experimental.trc
DataRate	CameraRate	NumFrames	NumMarkers	Units	OrigDataRate	OrigDataStartFrame	OrigNumFrames
200.000000	200.000000	4	60	mm	200.000000	767	3071
Frame#	Time	FHD			LBHD			RBHD			C7			T10			CLAV			LSHO			LUUPA			LMUPA			LDUPA			LLEP			LMEP			LRAD			LUL			LRFIN			RSHO			RUPA1			RMUPA			RDUPA			RLEP			RMEP			RRAD			RUL			RUFIN			LASI			RASI			USACR			LSACR			RSACR			LTHI1			LTHI2			LTHI3			LTHI4			LLFC			LMFC			LTIB1			LTIB2			LTIB3			LTIB4			LLMAL			LHEE			LMT1			LMT2			LMT5			RTHI			RTHI2			RTHI3			RTHI4			RLFC			RMFC			RTIB1			RTIB2			RTIB3			RTIB4			RLMAL			RMMAL			RHEE			RMT1			RMT2			RMT5			
		X1	Y1	Z1	X2	Y2	Z2	X3	Y3	Z3	X4	Y4	Z4	X5	Y5	Z5	X6	Y6	Z6	X7	Y7	Z7	X8	Y8	Z8	X9	Y9	Z9	X10	Y10	Z10	X11	Y11	Z11	X12	Y12	Z12	X13	Y13	Z13	X14	Y14	Z14	X15	Y15	Z15	X16	Y16	Z16	X17	Y17	Z17	X18	Y18	Z18	X19	Y19	Z19	X20	Y20	Z20	X21	Y21	Z21	X22	Y22	Z22	X23	Y23	Z23	X24	Y24	Z24	X25	Y25	Z25	X26	Y26	Z26	X27	Y27	Z27	X28	Y28	Z28	X29	Y29	Z29	X30	Y30	Z30	X31	Y31	Z31	X32	Y32	Z32	X33	Y33	Z33	X34	Y34	Z34	X35	Y35	Z35	X36	Y36	Z36	X37	Y37	Z37	X38	Y38	Z38	X39	Y39	Z39	X40	Y40	Z40	X41	Y41	Z41	X42	Y42	Z42	X43	Y43	Z43	X44	Y44	Z44	X45	Y45	Z45	X46	Y46	Z46	X47	Y47	Z47	X48	Y48	Z48	X49	Y49	Z49	X50	Y50	Z50	X51	Y51	Z51	X52	Y52	Z52	X53	Y53	Z53	X54	Y54	Z54	X55	Y55	Z55	X56	Y56	Z56	X57	Y57	Z57	X58	Y58	Z58	X59	Y59	Z59	X60	Y60	Z60	

768	3.835	-83.69380950927736	1783.931640625	-965.7908935546877	-256.0314636230469	1755.268676757813	-1041.341064453125	-267.5309753417969	1755.159423828125	-896.5012817382815	-373.5514526367188	1630.763549804688	-972.664733886719	-432.4971008300782	1285.209106445313	-960.238220214844	-226.6597290039063	1541.229858398438	-973.5647583007815	-276.4791870117188	1561.012939453125	-1173.58251953125	-337.9961242675782	1343.126831054688	-1267.4765625	-297.3362426757813	1316.032348632813	-1261.692626953125	-342.0503234863282	1275.103149414063	-1274.860961914063	-335.8145751953126	1211.8720703125	-1278.154418945313	-383.8218994140626	1200.991088867188	-1218.649047851563	-238.0365447998047	927.0621337890627	-1202.910400390625	-285.6556701660157	919.7088623046877	-1268.42236328125	-213.0188140869141	837.945007324219	-1231.209594726563	-250.6295471191407	1562.700439453125	-775.7875976562502	-318.9237670898438	1358.000854492188	-660.6089477539064	-281.7466735839844	1328.77099609375	-671.9684448242189	-325.0390014648438	1288.877685546875	-654.5435791015626	-324.3677062988282	1224.673095703125	-650.9107666015626	-370.2955627441407	1214.668090820313	-714.2187500000001	-281.5501708984376	930.261657714844	-675.8955078125001	-322.2468872070313	935.3139648437502	-609.1637573242189	-264.9079589843751	842.7590942382815	-636.7063598632814	-258.3931884765626	1062.8408203125	-1092.256713867188	-255.7625579833985	1094.50048828125	-809.0784912109377	-450.5130615234376	1177.049072265625	-954.1941528320315	-456.3890380859376	1146.672241210938	-982.5195312500002	-460.268280029297	1146.358764648438	-926.676452636719	-335.1267089843751	856.124694824219	-1138.384033203125	-307.6235046386719	774.507019042969	-1137.927490234375	-256.9502258300782	776.5026855468752	-1134.29052734375	-336.5909423828126	726.0633544921876	-1116.801025390625	-308.5287780761719	577.8787231445314	-1095.249145507813	-294.4406738281251	557.2991333007814	-962.7874145507815	-278.9401855468751	354.4738769531251	-1027.212280273438	-311.5997924804688	310.1803283691407	-1099.41015625	-281.3759460449219	307.0755615234376	-1064.26953125	-289.2709655761719	228.3540954589844	-1033.682861328125	-354.4295349121094	111.8461685180664	-1076.656860351563	-407.2442932128907	79.55078125000001	-1025.375366210938	-196.5239562988282	55.34812927246095	-1010.237670898438	-192.6359100341797	57.57129669189455	-1052.655395507813	-323.5791625976563	123.7649993896485	-993.3875732421877	-323.3124389648438	760.1587524414064	-738.1973266601564	-281.8890075683594	707.0437011718751	-734.6448364257814	-248.1619873046876	710.1539306640626	-738.4528808593751	-303.8061523437501	628.8978881835939	-747.3287963867189	-299.1225280761719	563.5416870117189	-744.8745117187501	-266.6229553222657	543.8468627929689	-869.9938964843752	-272.0441284179688	421.3291015625001	-760.1019897460939	-348.7283325195313	354.6322937011719	-725.5939941406251	-307.4299011230469	342.3576049804688	-746.2625122070314	-313.4101867675782	298.9671020507813	-786.5092773437502	-412.4589233398439	135.8780670166016	-741.9669799804689	-385.5355529785157	137.264389038086	-831.6946411132815	-479.781463623047	110.3988342285157	-794.1240234375002	-260.2778625488282	62.4188575744629	-789.1035156250002	-263.5130310058594	61.97219848632814	-750.4981079101564	-283.4634399414063	46.9652328491211	-701.9291992187501	
769	3.84	-86.43763732910158	1785.863525390625	-965.7666625976565	-257.7021484375001	1755.931030273438	-1040.76220703125	-269.2427673339844	1755.166870117188	-896.1033935546877	-374.6765441894532	1630.45751953125	-972.4756469726565	-432.8220520019532	1284.987670898438	-959.8487548828127	-227.6215820312501	1541.327026367188	-973.2547607421877	-275.8541870117188	1560.634765625	-1173.256469726563	-334.7658996582032	1342.2099609375	-1267.27685546875	-293.7798767089844	1315.303833007813	-1260.970825195313	-337.9197082519532	1274.22216796875	-1274.511596679688	-331.8892211914063	1211.042724609375	-1277.863037109375	-380.1116027832032	1199.979614257813	-1218.522827148438	-232.946029663086	926.7354125976565	-1201.593139648438	-279.9848327636719	918.8035888671877	-1267.873779296875	-207.5257873535157	837.808288574219	-1229.89111328125	-250.7248840332032	1562.557983398438	-775.6809692382815	-315.8528442382813	1356.80859375	-660.5415649414064	-278.8068542480469	1327.939697265625	-672.4194946289064	-321.2238464355469	1287.740478515625	-654.7849731445314	-320.2073364257813	1223.461303710938	-651.3284301757814	-366.3084411621094	1213.078857421875	-714.7186279296876	-276.6546630859376	929.6076660156252	-676.7333374023439	-316.3906860351563	934.4754028320315	-609.3373413085939	-259.7114868164063	841.6599121093752	-637.8433837890626	-258.4444580078126	1063.09765625	-1091.92626953125	-255.0672149658204	1094.916870117188	-808.1984863281252	-450.5887756347657	1176.846923828125	-953.902282714844	-456.4433898925782	1146.58251953125	-982.234313964844	-460.4425659179689	1146.0517578125	-926.293640136719	-335.9447021484376	855.5224609375002	-1139.1376953125	-307.5739440917969	774.6021728515627	-1137.81396484375	-257.7205505371094	776.8428955078127	-1134.344116210938	-336.2922668457032	725.9886474609376	-1116.572021484375	-308.3459472656251	577.9535522460939	-1095.266235351563	-294.0522766113282	557.3342895507814	-962.7877197265627	-278.6899108886719	354.4290771484376	-1027.16748046875	-311.5132446289063	310.2170104980469	-1099.373291015625	-281.1513061523438	306.9743957519532	-1064.273071289063	-289.2380371093751	228.4121551513672	-1033.6923828125	-354.5196533203126	111.8515701293946	-1076.623413085938	-407.2437438964845	79.56974029541017	-1025.39306640625	-196.5546875000001	55.35974121093751	-1010.219604492188	-192.5644226074219	57.55849838256837	-1052.63671875	-323.5534362792969	123.779769897461	-993.3931884765627	-323.2224731445313	760.0032348632814	-738.0084228515626	-281.7125854492188	706.8421630859376	-734.3609619140626	-248.0670013427735	709.8696289062501	-738.3208007812501	-303.5048217773438	628.7900390625001	-747.0706787109376	-298.8142089843751	563.3884887695314	-744.6531982421876	-266.1603393554688	543.7349853515626	-869.8286132812502	-271.6494750976563	421.3645019531251	-759.8623046875001	-348.4929504394532	354.5763549804688	-725.4117431640626	-307.1721496582032	342.2697448730469	-746.1656494140626	-313.1465759277344	298.8750000000001	-786.3922119140627	-412.4432983398439	135.8816680908203	-741.9537353515626	-385.5119018554689	137.2976684570313	-831.6795654296877	-479.7962646484376	110.4787292480469	-794.0878906250002	-260.2859191894532	62.4193572998047	-789.109558105469	-263.5142211914063	62.0016441345215	-750.4046630859376	-283.4312438964844	46.94993591308594	-701.8609008789064	
770	3.845	-87.97682189941408	1786.372680664063	-965.302185058594	-259.7975769042969	1756.206787109375	-1040.611328125	-271.1925964355469	1755.351196289063	-895.758239746094	-375.7329406738282	1630.3408203125	-972.2190551757815	-433.874969482422	1284.561889648438	-959.188903808594	-228.3529815673829	1541.397583007813	-972.7568359375002	-275.3299255371094	1560.267578125	-1172.874145507813	-331.6607360839844	1341.341674804688	-1267.12353515625	-290.5016174316407	1314.879028320313	-1260.188842773438	-334.9780273437501	1273.282348632813	-1274.424194335938	-327.0678405761719	1210.125244140625	-1277.515625	-376.6654357910157	1198.859741210938	-1218.760009765625	-228.0823822021485	926.694030761719	-1200.751831054688	-273.7949523925782	918.544128417969	-1267.42529296875	-201.4221801757813	838.4339599609377	-1229.411254882813	-250.8575439453126	1562.282958984375	-775.6072387695315	-313.0319824218751	1355.683837890625	-660.6309814453126	-275.5660705566407	1327.463745117188	-673.1922607421876	-317.4451599121094	1286.363891601563	-655.1632080078126	-315.8909912109376	1222.336303710938	-651.7686157226564	-362.2743835449219	1211.397094726563	-715.0916748046876	-271.2437438964844	928.726257324219	-677.3497314453126	-310.0632629394532	933.7467041015627	-609.3440551757814	-254.127426147461	840.6088867187502	-639.0168457031251	-258.3280944824219	1063.184204101563	-1091.538818359375	-254.5967254638672	1094.989501953125	-807.3824462890627	-450.7713012695314	1176.647338867188	-953.5788574218752	-456.5933227539064	1146.440673828125	-981.8911743164065	-460.5443725585939	1146.001098632813	-926.007507324219	-335.8157348632813	855.6339111328127	-1138.85107421875	-307.5393066406251	775.5263671875002	-1137.534912109375	-257.4763488769532	776.8169555664065	-1134.13037109375	-335.9807739257813	725.9306640625001	-1116.37548828125	-308.1446228027344	577.9901123046876	-1095.205444335938	-293.6595458984376	557.3467407226564	-962.7395019531252	-278.5558166503907	354.3384094238282	-1027.173583984375	-311.2592468261719	310.2257690429688	-1099.346435546875	-280.9280090332032	307.0705871582032	-1064.202758789063	-289.1222534179688	228.4187164306641	-1033.668334960938	-353.8446960449219	111.5806732177735	-1076.619750976563	-407.2546691894532	79.58120727539064	-1025.377197265625	-196.5348205566407	55.33695602416994	-1010.21240234375	-192.6064147949219	57.62619018554689	-1052.711303710938	-323.4782409667969	123.8060913085938	-993.357849121094	-323.0815734863282	759.8634033203126	-737.8153076171876	-281.4932250976563	706.6998291015626	-734.1278076171876	-247.925033569336	709.6221923828126	-738.2259521484376	-303.2597045898438	628.6190185546876	-746.8355102539064	-298.5083007812501	563.3641967773439	-744.4168090820314	-267.0646667480469	544.0233764648439	-869.9976806640627	-271.1954650878907	420.9883117675782	-759.8026733398439	-348.2628784179688	354.4528503417969	-725.2581176757814	-306.9242858886719	342.1085815429688	-746.0065917968751	-313.0048522949219	298.8174743652344	-786.3476562500002	-412.400848388672	135.8692321777344	-741.9434814453126	-385.4678344726564	137.2915954589844	-831.6589965820315	-479.7871704101564	110.4121856689453	-794.1148071289065	-260.2738952636719	62.39788818359376	-789.0970458984377	-263.4965515136719	61.94362640380861	-750.4636840820314	-283.4509582519532	46.90109252929688	-701.8241577148439	
771	3.85	-89.97322082519533	1787.6044921875	-964.7747192382815	-261.5757446289063	1756.034790039063	-1040.2666015625	-273.1736145019532	1755.46142578125	-895.557312011719	-376.8936462402344	1630.159423828125	-972.0920410156252	-433.5814208984376	1284.29443359375	-959.0452270507815	-229.1428680419922	1541.546875	-972.320495605469	-274.9493408203126	1560.1337890625	-1172.577270507813	-328.9399719238282	1340.694946289063	-1267.011108398438	-287.1906127929688	1314.500610351563	-1259.43505859375	-330.7412719726563	1272.4697265625	-1274.1259765625	-323.0151977539063	1209.626342773438	-1277.226318359375	-372.9189147949219	1197.7451171875	-1218.748901367188	-222.7046356201172	926.7080078125002	-1199.847778320313	-267.5290222167969	918.247741699219	-1266.914306640625	-195.2790679931641	838.6137695312502	-1228.026000976563	-251.0882720947266	1562.012573242188	-775.608581542969	-309.8578186035157	1354.668579101563	-660.7444458007814	-272.2850036621094	1326.607543945313	-673.7858886718751	-313.4496459960938	1285.427612304688	-655.4942626953126	-311.5834045410157	1221.414428710938	-652.3230590820314	-358.3811645507813	1209.859130859375	-715.3779296875001	-265.7538452148438	928.2470703125002	-677.9234008789064	-303.6808471679688	933.0810546875002	-609.3328857421876	-248.0170440673829	839.9031372070315	-640.0986328125001	-258.0462341308594	1063.200073242188	-1091.189453125	-254.5905761718751	1094.983032226563	-806.955993652344	-450.9840393066407	1176.476684570313	-953.2022705078127	-456.7918395996095	1146.286254882813	-981.5383911132815	-460.651580810547	1145.80078125	-925.677429199219	-335.7558593750001	855.7286376953127	-1138.496215820313	-307.4431457519532	775.579528808594	-1137.436401367188	-257.4586486816407	777.3821411132815	-1133.975219726563	-335.8323669433594	725.9597167968751	-1116.102661132813	-307.7861328125001	577.9344482421876	-1095.089965820313	-293.1545104980469	557.3489379882814	-962.6580810546877	-278.3873901367188	354.2566833496094	-1027.139404296875	-311.2417602539063	310.2071228027344	-1099.3212890625	-280.7729187011719	307.1013488769532	-1064.187622070313	-289.0484008789063	228.3873748779297	-1033.697021484375	-354.5739746093751	112.0708465576172	-1076.647583007813	-407.2129516601564	79.56912231445314	-1025.37255859375	-196.5909271240235	55.37976837158205	-1010.271301269531	-192.5426330566407	57.52748870849611	-1052.73486328125	-323.4295654296876	123.7852325439453	-993.3708496093752	-322.9675903320313	759.7937622070314	-737.5338745117189	-281.2858276367188	706.6398315429689	-733.8674926757814	-247.8024291992188	709.5474243164064	-737.9876708984376	-303.0560607910157	628.5288085937501	-746.6351318359376	-298.2179870605469	563.3287353515626	-744.2122802734376	-265.5141296386719	543.6719970703126	-869.4682617187502	-270.9839782714844	420.9122619628907	-759.7239990234376	-348.0046081542969	354.4460449218751	-725.0913085937501	-306.7266845703126	342.0128784179688	-745.8400268554689	-312.9348449707032	298.8659667968751	-786.2588500976565	-412.4230346679689	135.8926849365235	-741.9195556640626	-385.5754394531251	137.3604888916016	-831.661315917969	-479.7674560546876	110.4579544067383	-794.0860595703127	-260.2576293945313	62.3413543701172	-789.0710449218752	-263.5408630371094	61.92577743530275	-750.4392089843751	-283.4735412597657	46.90050888061524	-701.8195190429689	
